HIERARCHY
ROOT Hips
{
    OFFSET 0.000000 0.000000 0.000000
    CHANNELS 6 Xposition Yposition Zposition Zrotation Xrotation Yrotation
    JOINT Spine
    {
        OFFSET -0.000000 8.267054 0.000000
        CHANNELS 3 Zrotation Xrotation Yrotation
        JOINT Spine1
        {
            OFFSET -0.000000 23.684998 0.000000
            CHANNELS 3 Zrotation Xrotation Yrotation
            JOINT Neck
            {
                OFFSET -0.000000 23.587730 2.144339
                CHANNELS 3 Zrotation Xrotation Yrotation
                JOINT Head
                {
                    OFFSET -0.000000 14.114483 -2.016355
                    CHANNELS 3 Zrotation Xrotation Yrotation
                    End Site
                    {
                        OFFSET -0.000000 25.204432 0.000000
                    }
                }
            }
            JOINT LeftShoulder
            {
                OFFSET 4.070090 22.062094 -0.247321
                CHANNELS 3 Zrotation Xrotation Yrotation
                JOINT LeftArm
                {
                    OFFSET 10.395479 0.000000 0.000000
                    CHANNELS 3 Zrotation Xrotation Yrotation
                    JOINT LeftForeArm
                    {
                        OFFSET 37.713577 0.000000 0.000000
                        CHANNELS 3 Zrotation Xrotation Yrotation
                        JOINT LeftHand
                        {
                            OFFSET 20.284107 0.000000 0.000000
                            CHANNELS 3 Zrotation Xrotation Yrotation
                            End Site
                            {
                                OFFSET 15.122660 0.000000 0.000000
                            }
                        }
                    }
                }
            }
            JOINT RightShoulder
            {
                OFFSET -3.979272 22.062094 -0.247321
                CHANNELS 3 Zrotation Xrotation Yrotation
                JOINT RightArm
                {
                    OFFSET -10.395479 0.000000 0.000000
                    CHANNELS 3 Zrotation Xrotation Yrotation
                    JOINT RightForeArm
                    {
                        OFFSET -37.713577 0.000000 0.000000
                        CHANNELS 3 Zrotation Xrotation Yrotation
                        JOINT RightHand
                        {
                            OFFSET -20.284107 0.000000 0.000000
                            CHANNELS 3 Zrotation Xrotation Yrotation
                            End Site
                            {
                                OFFSET -15.122660 0.000000 0.000000
                            }
                        }
                    }
                }
            }
        }
    }
    JOINT LeftUpLeg
    {
        OFFSET 10.081773 0.000000 0.000000
        CHANNELS 3 Zrotation Xrotation Yrotation
        JOINT LeftLeg
        {
            OFFSET -0.000000 -36.382099 0.000000
            CHANNELS 3 Zrotation Xrotation Yrotation
            JOINT LeftFoot
            {
                OFFSET -0.000000 -49.182560 0.000000
                CHANNELS 3 Zrotation Xrotation Yrotation
                JOINT LeftToeBase
                {
                    OFFSET -0.000000 -6.553152 15.122660
                    CHANNELS 3 Zrotation Xrotation Yrotation
                    End Site
                    {
                        OFFSET -0.000000 0.000000 4.032709
                    }
                }
            }
        }
    }
    JOINT RightUpLeg
    {
        OFFSET -10.081773 0.000000 0.000000
        CHANNELS 3 Zrotation Xrotation Yrotation
        JOINT RightLeg
        {
            OFFSET -0.000000 -36.382099 0.000000
            CHANNELS 3 Zrotation Xrotation Yrotation
            JOINT RightFoot
            {
                OFFSET -0.000000 -49.182560 0.000000
                CHANNELS 3 Zrotation Xrotation Yrotation
                JOINT RightToeBase
                {
                    OFFSET -0.000000 -6.553152 15.122660
                    CHANNELS 3 Zrotation Xrotation Yrotation
                    End Site
                    {
                        OFFSET -0.000000 0.000000 4.032709
                    }
                }
            }
        }
    }
}
MOTION
Frames:    11
Frame Time:    0.008333
37.973305    91.418907    -68.763039    3.499796    -6.133727    -82.520325    1.940158    -2.641083    4.041592    -3.659951    1.448721    4.043144    0.979910    19.591055    -5.984028    -4.579797    11.711226    -6.383924    4.791213    11.677031    -3.078201    -71.234146    55.981083    -7.016733    -0.701152    -15.851214    -15.322756    -0.149035    -15.939912    -1.441354    -3.735795    5.680511    1.263227    59.739784    51.668739    16.546835    -4.153290    -10.122009    24.581541    -5.107148    -8.987610    -5.495694    7.440890    -15.393909    6.282732    0.052319    33.663490    14.917579    -3.836351    -7.237978    -5.825743    0.000000    0.000000    0.000000    -12.835142    -9.722836    -8.787575    2.748341    31.940153    5.016868    2.607421    -17.830957    -2.188058    0.000000    0.000000    0.000000    
38.059074    91.301331    -68.379379    3.466784    -6.037223    -82.427811    1.908138    -2.667936    3.921367    -3.494683    1.420939    3.920265    1.282979    19.668177    -5.826142    -5.080675    11.646544    -6.232160    4.794969    11.804648    -3.131593    -71.662766    56.298313    -6.886632    -0.765939    -16.452950    -14.998446    0.294795    -16.551796    -0.964626    -3.667734    5.631822    1.189419    59.744522    51.191708    16.651098    -4.007019    -9.798526    24.228867    -5.062126    -8.711241    -5.456346    7.937310    -15.210829    5.904628    0.131261    32.735477    15.420497    -3.466907    -7.288716    -5.662904    0.000000    0.000000    0.000000    -13.022299    -9.774005    -8.966819    2.735070    32.133343    5.294826    2.533056    -18.116434    -2.476506    0.000000    0.000000    0.000000    
38.137112    91.204948    -67.975334    3.429704    -5.962991    -82.257454    1.862056    -2.687846    3.780250    -3.365967    1.379253    3.777090    1.611248    19.744316    -5.683837    -5.579009    11.637280    -6.093139    4.836749    11.910722    -3.230853    -72.066597    56.781940    -6.748595    -0.846070    -17.163919    -14.783223    0.732988    -17.271137    -0.423099    -3.570900    5.599156    1.107219    59.819450    50.727036    16.668150    -3.892972    -9.562346    23.932241    -4.981928    -8.512355    -5.466647    8.385440    -15.021611    5.441613    0.136693    31.757572    16.130119    -3.125044    -7.246399    -5.543318    0.000000    0.000000    0.000000    -13.241107    -9.780697    -9.149098    2.724010    32.299194    5.498899    2.536666    -18.321012    -2.722795    0.000000    0.000000    0.000000    
38.203800    91.134048    -67.567780    3.393425    -5.915743    -82.022125    1.802118    -2.706550    3.630999    -3.271217    1.332816    3.626475    1.921344    19.797903    -5.567731    -6.023624    11.705662    -5.975658    4.900107    11.987404    -3.365038    -72.413406    57.372887    -6.616690    -0.945561    -17.938238    -14.682858    1.143975    -18.052689    0.126863    -3.457538    5.586339    1.009827    59.941208    50.312973    16.616899    -3.812871    -9.428942    23.706831    -4.883846    -8.405595    -5.517813    8.764913    -14.844213    4.933836    0.067474    30.791489    17.013803    -2.810998    -7.110397    -5.464551    0.000000    0.000000    0.000000    -13.484015    -9.732640    -9.309539    2.730625    32.411125    5.619549    2.600530    -18.447479    -2.937085    0.000000    0.000000    0.000000    
38.263329    91.083954    -67.136375    3.361648    -5.892508    -81.721802    1.725809    -2.731746    3.472516    -3.198208    1.283873    3.467208    2.196196    19.814951    -5.473350    -6.403669    11.871524    -5.873833    4.975781    12.039219    -3.525920    -72.713066    58.033207    -6.495092    -1.075788    -18.780434    -14.668827    1.547417    -18.902834    0.660332    -3.333780    5.596680    0.886744    60.096073    49.941467    16.520199    -3.758377    -9.395467    23.540445    -4.777102    -8.390747    -5.598320    9.095060    -14.680871    4.397249    -0.060791    29.807974    18.071756    -2.492838    -6.871119    -5.405212    0.000000    0.000000    0.000000    -13.760555    -9.624777    -9.442134    2.763509    32.458694    5.663209    2.710203    -18.515953    -3.145635    0.000000    0.000000    0.000000    
38.313477    91.056801    -66.704613    3.342088    -5.893160    -81.382889    1.641744    -2.766540    3.318578    -3.151784    1.234991    3.312929    2.419284    19.800486    -5.403439    -6.700666    12.105211    -5.791556    5.054538    12.065728    -3.690578    -72.943100    58.676739    -6.399992    -1.226535    -19.617517    -14.722198    1.916433    -19.749178    1.100968    -3.215709    5.631140    0.745203    60.271870    49.639069    16.394407    -3.731848    -9.458544    23.439857    -4.676103    -8.463884    -5.693650    9.357473    -14.551542    3.904225    -0.219988    28.877764    19.202415    -2.173106    -6.536150    -5.371963    0.000000    0.000000    0.000000    -14.050141    -9.463623    -9.531587    2.819976    32.426754    5.631575    2.848246    -18.532602    -3.348421    0.000000    0.000000    0.000000    
38.360493    91.048149    -66.228775    3.337724    -5.914508    -80.982376    1.547237    -2.818444    3.158900    -3.127546    1.181456    3.153091    2.613893    19.759338    -5.347898    -6.950681    12.408186    -5.718790    5.141239    12.072789    -3.863374    -73.126526    59.320873    -6.328526    -1.401157    -20.503040    -14.826640    2.282198    -20.646362    1.456343    -3.099547    5.690733    0.573674    60.486401    49.375874    16.233513    -3.725744    -9.612091    23.386705    -4.591268    -8.620648    -5.805279    9.580907    -14.451406    3.448726    -0.401805    27.921621    20.462458    -1.806646    -6.069382    -5.373514    0.000000    0.000000    0.000000    -14.372894    -9.237397    -9.585021    2.895107    32.305824    5.531322    3.022497    -18.508003    -3.570892    0.000000    0.000000    0.000000    
38.399811    91.058472    -65.758690    3.353396    -5.951252    -80.572411    1.458781    -2.886026    3.016251    -3.131744    1.129391    3.010399    2.761421    19.701254    -5.313182    -7.131179    12.729500    -5.665090    5.226339    12.063572    -4.014612    -73.236694    59.853195    -6.299816    -1.566583    -21.309008    -14.956913    2.600219    -21.465206    1.660411    -3.001356    5.767176    0.393025    60.719299    49.181648    16.054546    -3.741574    -9.824107    23.381390    -4.534165    -8.828677    -5.917288    9.741261    -14.397108    3.125121    -0.569965    27.053492    21.678514    -1.425686    -5.524468    -5.421995    0.000000    0.000000    0.000000    -14.684171    -8.974453    -9.589236    2.968634    32.101563    5.367789    3.218461    -18.446861    -3.780555    0.000000    0.000000    0.000000    
38.436287    91.085449    -65.254906    3.391261    -5.999725    -80.132248    1.378115    -2.976084    2.882910    -3.168452    1.074798    2.876837    2.884821    19.633114    -5.294706    -7.271327    13.067545    -5.626200    5.317997    12.044086    -4.148129    -73.285004    60.294926    -6.317159    -1.719849    -22.078049    -15.109900    2.906136    -22.248224    1.739151    -2.909259    5.861728    0.194796    60.988537    49.029339    15.842140    -3.774934    -10.089317    23.416534    -4.511399    -9.082826    -6.044645    9.861290    -14.382299    2.936605    -0.723798    26.202219    22.911877    -0.999603    -4.872553    -5.522747    0.000000    0.000000    0.000000    -14.998771    -8.670004    -9.569568    3.015101    31.813654    5.158910    3.459377    -18.343323    -3.980723    0.000000    0.000000    0.000000    
38.468369    91.125282    -64.753723    3.449816    -6.051626    -79.704239    1.320115    -3.083319    2.772882    -3.238576    1.022489    2.766260    2.979139    19.569498    -5.292928    -7.370601    13.372511    -5.605846    5.406223    12.017871    -4.246850    -73.267761    60.596031    -6.379772    -1.834464    -22.731037    -15.270897    3.190416    -22.913929    1.698023    -2.826052    5.974024    0.000219    61.261391    48.915810    15.623209    -3.816725    -10.369302    23.485739    -4.533517    -9.346141    -6.182539    9.935033    -14.406318    2.912494    -0.842970    25.440453    23.992359    -0.579911    -4.184376    -5.632015    0.000000    0.000000    0.000000    -15.287493    -8.363761    -9.571284    2.993855    31.483870    4.976590    3.734209    -18.198717    -4.151590    0.000000    0.000000    0.000000    
38.499725    91.178009    -64.214478    3.531632    -6.106824    -79.262535    1.283646    -3.214262    2.679760    -3.342221    0.967673    2.671992    3.052506    19.511992    -5.305700    -7.444464    13.655335    -5.601571    5.493209    11.986677    -4.316904    -73.189552    60.779243    -6.488993    -1.912794    -23.308973    -15.457826    3.503806    -23.502853    1.573111    -2.746130    6.119835    -0.197279    61.549599    48.811478    15.389258    -3.862311    -10.666042    23.590458    -4.596453    -9.621161    -6.341763    9.972569    -14.463058    3.035098    -0.935938    24.708309    24.957922    -0.162508    -3.425392    -5.735017    0.000000    0.000000    0.000000    -15.574803    -8.042119    -9.595226    2.908840    31.102880    4.816861    4.062001    -18.001602    -4.314962    0.000000    0.000000    0.000000    
